<mxfile host="app.diagrams.net" agent="Mozilla/5.0 (Windows NT 10.0; Win64; x64) AppleWebKit/537.36 (KHTML, like Gecko) Chrome/126.0.0.0 YaBrowser/24.7.0.0 Safari/537.36" version="24.8.0">
  <diagram name="Страница — 1" id="N4c9ng75oxIX9Wh0qhU4">
    <mxGraphModel dx="2340" dy="1996" grid="1" gridSize="10" guides="1" tooltips="1" connect="1" arrows="1" fold="1" page="1" pageScale="1" pageWidth="827" pageHeight="1169" math="0" shadow="0">
      <root>
        <mxCell id="0" />
        <mxCell id="1" parent="0" />
        <mxCell id="PILwApM1goDQA18c89xY-1" value="Хомидов Сардорбек&lt;div style=&quot;font-size: 17px;&quot;&gt;Группа И-9-23&lt;/div&gt;&lt;div style=&quot;font-size: 17px;&quot;&gt;Тема:Платформа для обучения детей&lt;/div&gt;" style="rounded=1;whiteSpace=wrap;html=1;fillColor=#f5f5f5;gradientColor=#b3b3b3;strokeColor=#666666;fontSize=17;" vertex="1" parent="1">
          <mxGeometry x="-190" y="-480" width="320" height="140" as="geometry" />
        </mxCell>
        <mxCell id="PILwApM1goDQA18c89xY-4" value="" style="edgeStyle=orthogonalEdgeStyle;rounded=0;orthogonalLoop=1;jettySize=auto;html=1;entryX=0.5;entryY=1;entryDx=0;entryDy=0;" edge="1" parent="1" source="PILwApM1goDQA18c89xY-2" target="PILwApM1goDQA18c89xY-5">
          <mxGeometry relative="1" as="geometry">
            <mxPoint x="390" y="165" as="targetPoint" />
          </mxGeometry>
        </mxCell>
        <mxCell id="PILwApM1goDQA18c89xY-9" value="" style="edgeStyle=orthogonalEdgeStyle;rounded=0;orthogonalLoop=1;jettySize=auto;html=1;" edge="1" parent="1" source="PILwApM1goDQA18c89xY-2" target="PILwApM1goDQA18c89xY-8">
          <mxGeometry relative="1" as="geometry" />
        </mxCell>
        <mxCell id="PILwApM1goDQA18c89xY-13" value="" style="edgeStyle=orthogonalEdgeStyle;rounded=0;orthogonalLoop=1;jettySize=auto;html=1;" edge="1" parent="1" source="PILwApM1goDQA18c89xY-2" target="PILwApM1goDQA18c89xY-12">
          <mxGeometry relative="1" as="geometry" />
        </mxCell>
        <mxCell id="PILwApM1goDQA18c89xY-15" value="" style="edgeStyle=orthogonalEdgeStyle;rounded=0;orthogonalLoop=1;jettySize=auto;html=1;" edge="1" parent="1" source="PILwApM1goDQA18c89xY-2" target="PILwApM1goDQA18c89xY-14">
          <mxGeometry relative="1" as="geometry">
            <Array as="points">
              <mxPoint x="80" y="250" />
            </Array>
          </mxGeometry>
        </mxCell>
        <mxCell id="PILwApM1goDQA18c89xY-40" value="" style="edgeStyle=orthogonalEdgeStyle;rounded=0;orthogonalLoop=1;jettySize=auto;html=1;" edge="1" parent="1" source="PILwApM1goDQA18c89xY-2" target="PILwApM1goDQA18c89xY-12">
          <mxGeometry relative="1" as="geometry" />
        </mxCell>
        <mxCell id="PILwApM1goDQA18c89xY-41" value="" style="edgeStyle=orthogonalEdgeStyle;rounded=0;orthogonalLoop=1;jettySize=auto;html=1;" edge="1" parent="1" source="PILwApM1goDQA18c89xY-2" target="PILwApM1goDQA18c89xY-12">
          <mxGeometry relative="1" as="geometry" />
        </mxCell>
        <mxCell id="PILwApM1goDQA18c89xY-2" value="Пользователь&lt;div&gt;&lt;br&gt;&lt;/div&gt;" style="shape=umlActor;verticalLabelPosition=bottom;verticalAlign=top;html=1;outlineConnect=0;fillColor=#ec0909;strokeColor=#b46504;" vertex="1" parent="1">
          <mxGeometry x="360" y="245" width="60" height="70" as="geometry" />
        </mxCell>
        <mxCell id="PILwApM1goDQA18c89xY-5" value="&lt;font style=&quot;font-size: 14px;&quot;&gt;Основные характеристика&lt;/font&gt;" style="ellipse;whiteSpace=wrap;html=1;fillColor=#1ba1e2;fontColor=#ffffff;strokeColor=#006EAF;" vertex="1" parent="1">
          <mxGeometry x="320" y="70" width="120" height="90" as="geometry" />
        </mxCell>
        <mxCell id="PILwApM1goDQA18c89xY-8" value="&lt;font style=&quot;font-size: 20px;&quot;&gt;Цели&lt;/font&gt;" style="rounded=1;whiteSpace=wrap;html=1;verticalAlign=top;fillColor=#60a917;fontColor=#ffffff;strokeColor=#2D7600;" vertex="1" parent="1">
          <mxGeometry x="550" y="310" width="120" height="60" as="geometry" />
        </mxCell>
        <mxCell id="PILwApM1goDQA18c89xY-12" value="&lt;div&gt;&lt;font style=&quot;font-size: 15px;&quot;&gt;&lt;br&gt;&lt;/font&gt;&lt;/div&gt;&lt;font style=&quot;font-size: 15px;&quot;&gt;&lt;div&gt;&lt;span style=&quot;background-color: initial;&quot;&gt;Предпочтение&lt;/span&gt;&lt;br&gt;&lt;/div&gt;&lt;/font&gt;" style="shape=hexagon;perimeter=hexagonPerimeter2;whiteSpace=wrap;html=1;fixedSize=1;verticalAlign=top;fillColor=#a20025;fontColor=#ffffff;strokeColor=#6F0000;" vertex="1" parent="1">
          <mxGeometry x="330" y="385" width="120" height="80" as="geometry" />
        </mxCell>
        <mxCell id="PILwApM1goDQA18c89xY-14" value="&lt;font style=&quot;font-size: 14px;&quot;&gt;Ожидание от онлайн обучение&lt;/font&gt;" style="whiteSpace=wrap;html=1;verticalAlign=top;fillColor=#6a00ff;fontColor=#ffffff;strokeColor=#3700CC;" vertex="1" parent="1">
          <mxGeometry x="20" y="90" width="120" height="60" as="geometry" />
        </mxCell>
        <mxCell id="PILwApM1goDQA18c89xY-16" value="" style="endArrow=classic;html=1;rounded=0;entryX=0;entryY=1;entryDx=0;entryDy=0;" edge="1" parent="1" source="PILwApM1goDQA18c89xY-2" target="PILwApM1goDQA18c89xY-17">
          <mxGeometry width="50" height="50" relative="1" as="geometry">
            <mxPoint x="420" y="240" as="sourcePoint" />
            <mxPoint x="470" y="190" as="targetPoint" />
          </mxGeometry>
        </mxCell>
        <mxCell id="PILwApM1goDQA18c89xY-17" value="Проблемы и потребности" style="ellipse;whiteSpace=wrap;html=1;fillColor=#ffe6cc;strokeColor=#d79b00;" vertex="1" parent="1">
          <mxGeometry x="530" y="120" width="120" height="80" as="geometry" />
        </mxCell>
        <mxCell id="PILwApM1goDQA18c89xY-18" value="" style="endArrow=classic;html=1;rounded=0;exitX=0;exitY=1;exitDx=0;exitDy=0;exitPerimeter=0;entryX=0.858;entryY=0.113;entryDx=0;entryDy=0;entryPerimeter=0;" edge="1" parent="1" source="PILwApM1goDQA18c89xY-2" target="PILwApM1goDQA18c89xY-19">
          <mxGeometry width="50" height="50" relative="1" as="geometry">
            <mxPoint x="350" y="300" as="sourcePoint" />
            <mxPoint x="300" y="360" as="targetPoint" />
          </mxGeometry>
        </mxCell>
        <mxCell id="PILwApM1goDQA18c89xY-19" value="Примеры&amp;nbsp;&lt;div&gt;платформ&lt;/div&gt;" style="shape=hexagon;perimeter=hexagonPerimeter2;whiteSpace=wrap;html=1;fixedSize=1;fillColor=#1ba1e2;fontColor=#ffffff;strokeColor=#006EAF;" vertex="1" parent="1">
          <mxGeometry x="110" y="340" width="120" height="80" as="geometry" />
        </mxCell>
        <mxCell id="PILwApM1goDQA18c89xY-20" value="Заказчик" style="shape=umlActor;verticalLabelPosition=bottom;verticalAlign=top;html=1;outlineConnect=0;fillColor=#d5e8d4;gradientColor=#97d077;strokeColor=#82b366;" vertex="1" parent="1">
          <mxGeometry x="337.5" y="-250" width="50" height="70" as="geometry" />
        </mxCell>
        <mxCell id="PILwApM1goDQA18c89xY-21" value="" style="endArrow=classic;html=1;rounded=0;" edge="1" parent="1" target="PILwApM1goDQA18c89xY-31">
          <mxGeometry width="50" height="50" relative="1" as="geometry">
            <mxPoint x="430" y="100" as="sourcePoint" />
            <mxPoint x="480" y="30" as="targetPoint" />
          </mxGeometry>
        </mxCell>
        <mxCell id="PILwApM1goDQA18c89xY-22" value="" style="endArrow=classic;html=1;rounded=0;exitX=0.033;exitY=0.256;exitDx=0;exitDy=0;exitPerimeter=0;" edge="1" parent="1" source="PILwApM1goDQA18c89xY-5" target="PILwApM1goDQA18c89xY-27">
          <mxGeometry width="50" height="50" relative="1" as="geometry">
            <mxPoint x="390" y="-20" as="sourcePoint" />
            <mxPoint x="270" y="60" as="targetPoint" />
          </mxGeometry>
        </mxCell>
        <mxCell id="PILwApM1goDQA18c89xY-23" value="" style="endArrow=classic;html=1;rounded=0;" edge="1" parent="1" source="PILwApM1goDQA18c89xY-5" target="PILwApM1goDQA18c89xY-28">
          <mxGeometry width="50" height="50" relative="1" as="geometry">
            <mxPoint x="390" y="-20" as="sourcePoint" />
            <mxPoint x="330" y="10" as="targetPoint" />
          </mxGeometry>
        </mxCell>
        <mxCell id="PILwApM1goDQA18c89xY-24" value="" style="endArrow=classic;html=1;rounded=0;exitX=0.433;exitY=-0.033;exitDx=0;exitDy=0;exitPerimeter=0;" edge="1" parent="1" source="PILwApM1goDQA18c89xY-5" target="PILwApM1goDQA18c89xY-29">
          <mxGeometry width="50" height="50" relative="1" as="geometry">
            <mxPoint x="390" y="-20" as="sourcePoint" />
            <mxPoint x="380" y="-10" as="targetPoint" />
          </mxGeometry>
        </mxCell>
        <mxCell id="PILwApM1goDQA18c89xY-25" value="" style="endArrow=classic;html=1;rounded=0;exitX=0.558;exitY=0.022;exitDx=0;exitDy=0;exitPerimeter=0;" edge="1" parent="1" source="PILwApM1goDQA18c89xY-5" target="PILwApM1goDQA18c89xY-32">
          <mxGeometry width="50" height="50" relative="1" as="geometry">
            <mxPoint x="390" y="-20" as="sourcePoint" />
            <mxPoint x="426.6311392769694" y="14.402995823131278" as="targetPoint" />
            <Array as="points" />
          </mxGeometry>
        </mxCell>
        <mxCell id="PILwApM1goDQA18c89xY-27" value="Имя" style="rhombus;whiteSpace=wrap;html=1;fillColor=#6a00ff;fontColor=#ffffff;strokeColor=#3700CC;" vertex="1" parent="1">
          <mxGeometry x="190" y="20" width="55" height="70" as="geometry" />
        </mxCell>
        <mxCell id="PILwApM1goDQA18c89xY-28" value="Возраст" style="rhombus;whiteSpace=wrap;html=1;fillColor=#0050ef;fontColor=#ffffff;strokeColor=#001DBC;" vertex="1" parent="1">
          <mxGeometry x="240" y="-30" width="70" height="60" as="geometry" />
        </mxCell>
        <mxCell id="PILwApM1goDQA18c89xY-29" value="Класс" style="rhombus;whiteSpace=wrap;html=1;fillColor=#60a917;fontColor=#ffffff;strokeColor=#2D7600;" vertex="1" parent="1">
          <mxGeometry x="330" y="-50" width="65" height="70" as="geometry" />
        </mxCell>
        <mxCell id="PILwApM1goDQA18c89xY-31" value="Местополо-&lt;div&gt;жения&lt;/div&gt;" style="rhombus;whiteSpace=wrap;html=1;fillColor=#6a00ff;fontColor=#ffffff;strokeColor=#3700CC;" vertex="1" parent="1">
          <mxGeometry x="475" width="85" height="80" as="geometry" />
        </mxCell>
        <mxCell id="PILwApM1goDQA18c89xY-32" value="Технические навыки" style="rhombus;whiteSpace=wrap;html=1;fillColor=#1ba1e2;fontColor=#ffffff;strokeColor=#006EAF;" vertex="1" parent="1">
          <mxGeometry x="400" y="-60" width="90" height="90" as="geometry" />
        </mxCell>
        <mxCell id="PILwApM1goDQA18c89xY-34" value="" style="endArrow=classic;html=1;rounded=0;entryX=0.5;entryY=0;entryDx=0;entryDy=0;" edge="1" parent="1" source="PILwApM1goDQA18c89xY-20" target="PILwApM1goDQA18c89xY-27">
          <mxGeometry width="50" height="50" relative="1" as="geometry">
            <mxPoint x="390" y="-150" as="sourcePoint" />
            <mxPoint x="440" y="-200" as="targetPoint" />
            <Array as="points">
              <mxPoint x="210" y="-210" />
            </Array>
          </mxGeometry>
        </mxCell>
        <mxCell id="PILwApM1goDQA18c89xY-35" value="" style="endArrow=classic;html=1;rounded=0;entryX=0.5;entryY=0;entryDx=0;entryDy=0;exitX=0;exitY=1;exitDx=0;exitDy=0;exitPerimeter=0;" edge="1" parent="1" source="PILwApM1goDQA18c89xY-20" target="PILwApM1goDQA18c89xY-28">
          <mxGeometry width="50" height="50" relative="1" as="geometry">
            <mxPoint x="200" y="-120" as="sourcePoint" />
            <mxPoint x="250" y="-170" as="targetPoint" />
            <Array as="points">
              <mxPoint x="270" y="-180" />
            </Array>
          </mxGeometry>
        </mxCell>
        <mxCell id="PILwApM1goDQA18c89xY-36" value="" style="endArrow=classic;html=1;rounded=0;entryX=0.5;entryY=0;entryDx=0;entryDy=0;" edge="1" parent="1" source="PILwApM1goDQA18c89xY-20" target="PILwApM1goDQA18c89xY-29">
          <mxGeometry width="50" height="50" relative="1" as="geometry">
            <mxPoint x="370" y="-160" as="sourcePoint" />
            <mxPoint x="440" y="-200" as="targetPoint" />
          </mxGeometry>
        </mxCell>
        <mxCell id="PILwApM1goDQA18c89xY-37" value="" style="endArrow=classic;html=1;rounded=0;entryX=0.5;entryY=0;entryDx=0;entryDy=0;exitX=1;exitY=1;exitDx=0;exitDy=0;exitPerimeter=0;" edge="1" parent="1" source="PILwApM1goDQA18c89xY-20" target="PILwApM1goDQA18c89xY-32">
          <mxGeometry width="50" height="50" relative="1" as="geometry">
            <mxPoint x="390" y="-150" as="sourcePoint" />
            <mxPoint x="440" y="-200" as="targetPoint" />
            <Array as="points">
              <mxPoint x="450" y="-180" />
            </Array>
          </mxGeometry>
        </mxCell>
        <mxCell id="PILwApM1goDQA18c89xY-38" value="" style="endArrow=classic;html=1;rounded=0;entryX=0.5;entryY=0;entryDx=0;entryDy=0;" edge="1" parent="1" source="PILwApM1goDQA18c89xY-20" target="PILwApM1goDQA18c89xY-31">
          <mxGeometry width="50" height="50" relative="1" as="geometry">
            <mxPoint x="390" y="-150" as="sourcePoint" />
            <mxPoint x="440" y="-200" as="targetPoint" />
            <Array as="points">
              <mxPoint x="518" y="-210" />
            </Array>
          </mxGeometry>
        </mxCell>
        <mxCell id="PILwApM1goDQA18c89xY-42" value="" style="endArrow=classic;html=1;rounded=0;exitX=0.342;exitY=0.038;exitDx=0;exitDy=0;exitPerimeter=0;" edge="1" parent="1" source="PILwApM1goDQA18c89xY-17" target="PILwApM1goDQA18c89xY-57">
          <mxGeometry width="50" height="50" relative="1" as="geometry">
            <mxPoint x="390" y="150" as="sourcePoint" />
            <mxPoint x="620" y="30" as="targetPoint" />
          </mxGeometry>
        </mxCell>
        <mxCell id="PILwApM1goDQA18c89xY-43" value="" style="endArrow=classic;html=1;rounded=0;exitX=1;exitY=0.5;exitDx=0;exitDy=0;" edge="1" parent="1" source="PILwApM1goDQA18c89xY-8" target="PILwApM1goDQA18c89xY-49">
          <mxGeometry width="50" height="50" relative="1" as="geometry">
            <mxPoint x="560" y="240" as="sourcePoint" />
            <mxPoint x="710" y="100" as="targetPoint" />
          </mxGeometry>
        </mxCell>
        <mxCell id="PILwApM1goDQA18c89xY-44" value="" style="endArrow=classic;html=1;rounded=0;exitX=0.642;exitY=0.017;exitDx=0;exitDy=0;exitPerimeter=0;" edge="1" parent="1" source="PILwApM1goDQA18c89xY-8" target="PILwApM1goDQA18c89xY-48">
          <mxGeometry width="50" height="50" relative="1" as="geometry">
            <mxPoint x="760" y="280" as="sourcePoint" />
            <mxPoint x="700" y="40" as="targetPoint" />
          </mxGeometry>
        </mxCell>
        <mxCell id="PILwApM1goDQA18c89xY-45" value="" style="endArrow=classic;html=1;rounded=0;exitX=0.367;exitY=-0.067;exitDx=0;exitDy=0;exitPerimeter=0;" edge="1" parent="1" source="PILwApM1goDQA18c89xY-8" target="PILwApM1goDQA18c89xY-47">
          <mxGeometry width="50" height="50" relative="1" as="geometry">
            <mxPoint x="720" y="270" as="sourcePoint" />
            <mxPoint x="600" y="40" as="targetPoint" />
          </mxGeometry>
        </mxCell>
        <mxCell id="PILwApM1goDQA18c89xY-46" value="" style="endArrow=classic;html=1;rounded=0;exitX=0.583;exitY=1.067;exitDx=0;exitDy=0;exitPerimeter=0;" edge="1" parent="1" source="PILwApM1goDQA18c89xY-8" target="PILwApM1goDQA18c89xY-50">
          <mxGeometry width="50" height="50" relative="1" as="geometry">
            <mxPoint x="620" y="210" as="sourcePoint" />
            <mxPoint x="720" y="150" as="targetPoint" />
          </mxGeometry>
        </mxCell>
        <mxCell id="PILwApM1goDQA18c89xY-47" value="Получить новые знание от предметам,&amp;nbsp; которые нравится" style="ellipse;whiteSpace=wrap;html=1;fillColor=#6a00ff;fontColor=#ffffff;strokeColor=#3700CC;" vertex="1" parent="1">
          <mxGeometry x="805" y="170" width="110" height="100" as="geometry" />
        </mxCell>
        <mxCell id="PILwApM1goDQA18c89xY-48" value="Подготовиться к экзаменам и контрольному" style="ellipse;whiteSpace=wrap;html=1;fillColor=#60a917;fontColor=#ffffff;strokeColor=#2D7600;" vertex="1" parent="1">
          <mxGeometry x="840" y="280" width="120" height="80" as="geometry" />
        </mxCell>
        <mxCell id="PILwApM1goDQA18c89xY-49" value="Развивать навыки самостоятельного обучения" style="ellipse;whiteSpace=wrap;html=1;fillColor=#1ba1e2;fontColor=#ffffff;strokeColor=#006EAF;" vertex="1" parent="1">
          <mxGeometry x="905" y="370" width="120" height="80" as="geometry" />
        </mxCell>
        <mxCell id="PILwApM1goDQA18c89xY-50" value="Общаться другими детьми и найти друзей" style="ellipse;whiteSpace=wrap;html=1;fillColor=#d80073;fontColor=#ffffff;strokeColor=#A50040;" vertex="1" parent="1">
          <mxGeometry x="820" y="440" width="120" height="80" as="geometry" />
        </mxCell>
        <mxCell id="PILwApM1goDQA18c89xY-51" value="" style="endArrow=classic;html=1;rounded=0;exitX=1;exitY=1;exitDx=0;exitDy=0;" edge="1" parent="1" source="PILwApM1goDQA18c89xY-17" target="PILwApM1goDQA18c89xY-54">
          <mxGeometry width="50" height="50" relative="1" as="geometry">
            <mxPoint x="690" y="270" as="sourcePoint" />
            <mxPoint x="710" y="190" as="targetPoint" />
          </mxGeometry>
        </mxCell>
        <mxCell id="PILwApM1goDQA18c89xY-52" value="" style="endArrow=classic;html=1;rounded=0;exitX=0.992;exitY=0.425;exitDx=0;exitDy=0;exitPerimeter=0;" edge="1" parent="1" source="PILwApM1goDQA18c89xY-17" target="PILwApM1goDQA18c89xY-55">
          <mxGeometry width="50" height="50" relative="1" as="geometry">
            <mxPoint x="690" y="270" as="sourcePoint" />
            <mxPoint x="730" y="110" as="targetPoint" />
          </mxGeometry>
        </mxCell>
        <mxCell id="PILwApM1goDQA18c89xY-53" value="" style="endArrow=classic;html=1;rounded=0;exitX=0.717;exitY=0.1;exitDx=0;exitDy=0;exitPerimeter=0;" edge="1" parent="1" source="PILwApM1goDQA18c89xY-17" target="PILwApM1goDQA18c89xY-56">
          <mxGeometry width="50" height="50" relative="1" as="geometry">
            <mxPoint x="690" y="270" as="sourcePoint" />
            <mxPoint x="690" y="60" as="targetPoint" />
          </mxGeometry>
        </mxCell>
        <mxCell id="PILwApM1goDQA18c89xY-54" value="Потребность в интерактивных и увлекательных материялах&amp;nbsp;" style="ellipse;shape=cloud;whiteSpace=wrap;html=1;fillColor=#d80073;fontColor=#ffffff;strokeColor=#A50040;" vertex="1" parent="1">
          <mxGeometry x="880" y="80" width="120" height="80" as="geometry" />
        </mxCell>
        <mxCell id="PILwApM1goDQA18c89xY-55" value="Ограниченое время для занятия изи зи других обязательств" style="ellipse;shape=cloud;whiteSpace=wrap;html=1;fillColor=#cce5ff;strokeColor=#36393d;" vertex="1" parent="1">
          <mxGeometry x="795" y="-10" width="120" height="80" as="geometry" />
        </mxCell>
        <mxCell id="PILwApM1goDQA18c89xY-56" value="Сложности с пониманием некоторых тем без помощи учителя" style="ellipse;shape=cloud;whiteSpace=wrap;html=1;fillColor=#6a00ff;fontColor=#ffffff;strokeColor=#3700CC;" vertex="1" parent="1">
          <mxGeometry x="690" y="-70" width="120" height="100" as="geometry" />
        </mxCell>
        <mxCell id="PILwApM1goDQA18c89xY-57" value="Нехватка мотивации для самостаятельного изучение" style="ellipse;shape=cloud;whiteSpace=wrap;html=1;fillColor=#60a917;fontColor=#ffffff;strokeColor=#2D7600;" vertex="1" parent="1">
          <mxGeometry x="550" y="-90" width="140" height="115" as="geometry" />
        </mxCell>
        <mxCell id="PILwApM1goDQA18c89xY-58" value="" style="endArrow=classic;html=1;rounded=0;exitX=0.05;exitY=0.6;exitDx=0;exitDy=0;exitPerimeter=0;" edge="1" parent="1" source="PILwApM1goDQA18c89xY-12" target="PILwApM1goDQA18c89xY-65">
          <mxGeometry width="50" height="50" relative="1" as="geometry">
            <mxPoint x="360" y="470" as="sourcePoint" />
            <mxPoint x="230" y="600" as="targetPoint" />
            <Array as="points">
              <mxPoint x="230" y="433" />
            </Array>
          </mxGeometry>
        </mxCell>
        <mxCell id="PILwApM1goDQA18c89xY-59" value="" style="endArrow=classic;html=1;rounded=0;exitX=0.183;exitY=1.038;exitDx=0;exitDy=0;exitPerimeter=0;" edge="1" parent="1" source="PILwApM1goDQA18c89xY-12" target="PILwApM1goDQA18c89xY-64">
          <mxGeometry width="50" height="50" relative="1" as="geometry">
            <mxPoint x="360" y="470" as="sourcePoint" />
            <mxPoint x="310" y="590" as="targetPoint" />
            <Array as="points">
              <mxPoint x="310" y="470" />
            </Array>
          </mxGeometry>
        </mxCell>
        <mxCell id="PILwApM1goDQA18c89xY-60" value="" style="endArrow=classic;html=1;rounded=0;exitX=0.683;exitY=1.013;exitDx=0;exitDy=0;exitPerimeter=0;" edge="1" parent="1" source="PILwApM1goDQA18c89xY-12" target="PILwApM1goDQA18c89xY-63">
          <mxGeometry width="50" height="50" relative="1" as="geometry">
            <mxPoint x="360" y="470" as="sourcePoint" />
            <mxPoint x="470" y="590" as="targetPoint" />
            <Array as="points">
              <mxPoint x="470" y="470" />
            </Array>
          </mxGeometry>
        </mxCell>
        <mxCell id="PILwApM1goDQA18c89xY-61" value="" style="endArrow=classic;html=1;rounded=0;exitX=1;exitY=0.5;exitDx=0;exitDy=0;" edge="1" parent="1" source="PILwApM1goDQA18c89xY-12" target="PILwApM1goDQA18c89xY-62">
          <mxGeometry width="50" height="50" relative="1" as="geometry">
            <mxPoint x="360" y="470" as="sourcePoint" />
            <mxPoint x="560" y="560" as="targetPoint" />
            <Array as="points">
              <mxPoint x="560" y="425" />
            </Array>
          </mxGeometry>
        </mxCell>
        <mxCell id="PILwApM1goDQA18c89xY-62" value="Формат обучения:Видеоуроки, задание,игры" style="rhombus;whiteSpace=wrap;html=1;fillColor=#008a00;fontColor=#ffffff;strokeColor=#005700;" vertex="1" parent="1">
          <mxGeometry x="520" y="535" width="140" height="100" as="geometry" />
        </mxCell>
        <mxCell id="PILwApM1goDQA18c89xY-63" value="Время занятий:1-2часа в день" style="rhombus;whiteSpace=wrap;html=1;fillColor=#d80073;fontColor=#ffffff;strokeColor=#A50040;" vertex="1" parent="1">
          <mxGeometry x="420" y="520" width="100" height="95" as="geometry" />
        </mxCell>
        <mxCell id="PILwApM1goDQA18c89xY-64" value="Платформы удобные и доступные" style="rhombus;whiteSpace=wrap;html=1;fillColor=#1ba1e2;fontColor=#ffffff;strokeColor=#006EAF;" vertex="1" parent="1">
          <mxGeometry x="270" y="535" width="100" height="90" as="geometry" />
        </mxCell>
        <mxCell id="PILwApM1goDQA18c89xY-65" value="Стиль обучение:Визуальный и практический" style="rhombus;whiteSpace=wrap;html=1;fillColor=#d80073;fontColor=#ffffff;strokeColor=#A50040;" vertex="1" parent="1">
          <mxGeometry x="150" y="535" width="120" height="115" as="geometry" />
        </mxCell>
        <mxCell id="PILwApM1goDQA18c89xY-66" value="Khan Academy" style="rhombus;whiteSpace=wrap;html=1;fillColor=#0050ef;fontColor=#ffffff;strokeColor=#001DBC;" vertex="1" parent="1">
          <mxGeometry x="10" y="260" width="80" height="80" as="geometry" />
        </mxCell>
        <mxCell id="PILwApM1goDQA18c89xY-67" value="Coursera для детей" style="rhombus;whiteSpace=wrap;html=1;fillColor=#008a00;fontColor=#ffffff;strokeColor=#005700;" vertex="1" parent="1">
          <mxGeometry x="-50" y="305" width="80" height="80" as="geometry" />
        </mxCell>
        <mxCell id="PILwApM1goDQA18c89xY-68" value="Duolingo" style="rhombus;whiteSpace=wrap;html=1;fillColor=#6a00ff;fontColor=#ffffff;strokeColor=#3700CC;" vertex="1" parent="1">
          <mxGeometry x="-20" y="400" width="80" height="80" as="geometry" />
        </mxCell>
        <mxCell id="PILwApM1goDQA18c89xY-69" value="Minecraft education" style="rhombus;whiteSpace=wrap;html=1;fillColor=#e3c800;fontColor=#000000;strokeColor=#B09500;" vertex="1" parent="1">
          <mxGeometry x="80" y="450" width="80" height="80" as="geometry" />
        </mxCell>
        <mxCell id="PILwApM1goDQA18c89xY-70" value="" style="endArrow=classic;html=1;rounded=0;exitX=0.375;exitY=1;exitDx=0;exitDy=0;entryX=0.5;entryY=0;entryDx=0;entryDy=0;" edge="1" parent="1" source="PILwApM1goDQA18c89xY-19" target="PILwApM1goDQA18c89xY-69">
          <mxGeometry width="50" height="50" relative="1" as="geometry">
            <mxPoint x="360" y="470" as="sourcePoint" />
            <mxPoint x="410" y="420" as="targetPoint" />
          </mxGeometry>
        </mxCell>
        <mxCell id="PILwApM1goDQA18c89xY-71" value="" style="endArrow=classic;html=1;rounded=0;exitX=0;exitY=0.75;exitDx=0;exitDy=0;" edge="1" parent="1" source="PILwApM1goDQA18c89xY-19" target="PILwApM1goDQA18c89xY-68">
          <mxGeometry width="50" height="50" relative="1" as="geometry">
            <mxPoint x="130" y="330" as="sourcePoint" />
            <mxPoint x="120" y="385" as="targetPoint" />
          </mxGeometry>
        </mxCell>
        <mxCell id="PILwApM1goDQA18c89xY-72" value="" style="endArrow=classic;html=1;rounded=0;exitX=0;exitY=0.5;exitDx=0;exitDy=0;entryX=0.875;entryY=0.625;entryDx=0;entryDy=0;entryPerimeter=0;" edge="1" parent="1" source="PILwApM1goDQA18c89xY-19" target="PILwApM1goDQA18c89xY-67">
          <mxGeometry width="50" height="50" relative="1" as="geometry">
            <mxPoint x="360" y="470" as="sourcePoint" />
            <mxPoint x="410" y="420" as="targetPoint" />
          </mxGeometry>
        </mxCell>
        <mxCell id="PILwApM1goDQA18c89xY-73" value="" style="endArrow=classic;html=1;rounded=0;exitX=0.5;exitY=0;exitDx=0;exitDy=0;" edge="1" parent="1" source="PILwApM1goDQA18c89xY-19" target="PILwApM1goDQA18c89xY-66">
          <mxGeometry width="50" height="50" relative="1" as="geometry">
            <mxPoint x="360" y="470" as="sourcePoint" />
            <mxPoint x="410" y="420" as="targetPoint" />
          </mxGeometry>
        </mxCell>
        <mxCell id="PILwApM1goDQA18c89xY-75" value="Возможность получать обратную связь от преподавателей" style="rounded=1;whiteSpace=wrap;html=1;fillColor=#a0522d;fontColor=#ffffff;strokeColor=#6D1F00;" vertex="1" parent="1">
          <mxGeometry x="-220" y="-20" width="120" height="60" as="geometry" />
        </mxCell>
        <mxCell id="PILwApM1goDQA18c89xY-76" value="Доступ&amp;nbsp; к качественным образованным ресурсам" style="rounded=1;whiteSpace=wrap;html=1;fillColor=#fa6800;fontColor=#000000;strokeColor=#C73500;fontSize=13;" vertex="1" parent="1">
          <mxGeometry x="-50" y="-62.5" width="120" height="60" as="geometry" />
        </mxCell>
        <mxCell id="PILwApM1goDQA18c89xY-77" value="Интерактивные элементы, такие как викторины и задания" style="rounded=1;whiteSpace=wrap;html=1;fillColor=#6d8764;fontColor=#ffffff;strokeColor=#3A5431;" vertex="1" parent="1">
          <mxGeometry x="-240" y="90" width="120" height="60" as="geometry" />
        </mxCell>
        <mxCell id="PILwApM1goDQA18c89xY-78" value="Сообщество для общения с другими учениками" style="rounded=1;whiteSpace=wrap;html=1;fillColor=#60a917;fontColor=#ffffff;strokeColor=#2D7600;" vertex="1" parent="1">
          <mxGeometry x="-190" y="185" width="120" height="60" as="geometry" />
        </mxCell>
        <mxCell id="PILwApM1goDQA18c89xY-80" value="" style="endArrow=classic;html=1;rounded=0;exitX=0.5;exitY=0;exitDx=0;exitDy=0;entryX=0.5;entryY=1;entryDx=0;entryDy=0;" edge="1" parent="1" source="PILwApM1goDQA18c89xY-14" target="PILwApM1goDQA18c89xY-76">
          <mxGeometry width="50" height="50" relative="1" as="geometry">
            <mxPoint x="350" y="210" as="sourcePoint" />
            <mxPoint x="400" y="160" as="targetPoint" />
          </mxGeometry>
        </mxCell>
        <mxCell id="PILwApM1goDQA18c89xY-81" value="" style="endArrow=classic;html=1;rounded=0;exitX=0;exitY=0.5;exitDx=0;exitDy=0;entryX=1;entryY=1;entryDx=0;entryDy=0;" edge="1" parent="1" source="PILwApM1goDQA18c89xY-14" target="PILwApM1goDQA18c89xY-75">
          <mxGeometry width="50" height="50" relative="1" as="geometry">
            <mxPoint x="350" y="210" as="sourcePoint" />
            <mxPoint x="400" y="160" as="targetPoint" />
          </mxGeometry>
        </mxCell>
        <mxCell id="PILwApM1goDQA18c89xY-82" value="" style="endArrow=classic;html=1;rounded=0;exitX=0;exitY=1;exitDx=0;exitDy=0;entryX=1;entryY=0.5;entryDx=0;entryDy=0;" edge="1" parent="1" source="PILwApM1goDQA18c89xY-14" target="PILwApM1goDQA18c89xY-77">
          <mxGeometry width="50" height="50" relative="1" as="geometry">
            <mxPoint x="350" y="210" as="sourcePoint" />
            <mxPoint x="400" y="160" as="targetPoint" />
          </mxGeometry>
        </mxCell>
        <mxCell id="PILwApM1goDQA18c89xY-83" value="" style="endArrow=classic;html=1;rounded=0;exitX=0.25;exitY=1;exitDx=0;exitDy=0;entryX=1;entryY=0.75;entryDx=0;entryDy=0;" edge="1" parent="1" source="PILwApM1goDQA18c89xY-14" target="PILwApM1goDQA18c89xY-78">
          <mxGeometry width="50" height="50" relative="1" as="geometry">
            <mxPoint x="350" y="210" as="sourcePoint" />
            <mxPoint x="400" y="160" as="targetPoint" />
          </mxGeometry>
        </mxCell>
        <mxCell id="PILwApM1goDQA18c89xY-85" value="Онлайн обучение" style="shape=umlActor;verticalLabelPosition=bottom;verticalAlign=top;html=1;outlineConnect=0;fillColor=#6a00ff;fontColor=#ffffff;strokeColor=#3700CC;" vertex="1" parent="1">
          <mxGeometry x="-640" y="40" width="120" height="105" as="geometry" />
        </mxCell>
        <mxCell id="PILwApM1goDQA18c89xY-86" value="" style="endArrow=none;dashed=1;html=1;dashPattern=1 3;strokeWidth=2;rounded=0;entryX=0;entryY=0.5;entryDx=0;entryDy=0;exitX=1;exitY=0.3333333333333333;exitDx=0;exitDy=0;exitPerimeter=0;" edge="1" parent="1" source="PILwApM1goDQA18c89xY-85" target="PILwApM1goDQA18c89xY-75">
          <mxGeometry width="50" height="50" relative="1" as="geometry">
            <mxPoint x="-320" y="210" as="sourcePoint" />
            <mxPoint x="-270" y="160" as="targetPoint" />
          </mxGeometry>
        </mxCell>
        <mxCell id="PILwApM1goDQA18c89xY-87" value="" style="endArrow=none;dashed=1;html=1;dashPattern=1 3;strokeWidth=2;rounded=0;" edge="1" parent="1" source="PILwApM1goDQA18c89xY-85">
          <mxGeometry width="50" height="50" relative="1" as="geometry">
            <mxPoint x="-320" y="210" as="sourcePoint" />
            <mxPoint x="-50" y="-62" as="targetPoint" />
            <Array as="points">
              <mxPoint x="-540" y="-40" />
            </Array>
          </mxGeometry>
        </mxCell>
        <mxCell id="PILwApM1goDQA18c89xY-88" value="" style="endArrow=none;dashed=1;html=1;dashPattern=1 3;strokeWidth=2;rounded=0;entryX=0;entryY=0.5;entryDx=0;entryDy=0;" edge="1" parent="1" source="PILwApM1goDQA18c89xY-85" target="PILwApM1goDQA18c89xY-78">
          <mxGeometry width="50" height="50" relative="1" as="geometry">
            <mxPoint x="-510" y="180" as="sourcePoint" />
            <mxPoint x="-270" y="130" as="targetPoint" />
            <Array as="points">
              <mxPoint x="-545" y="230" />
            </Array>
          </mxGeometry>
        </mxCell>
        <mxCell id="PILwApM1goDQA18c89xY-89" value="" style="endArrow=none;dashed=1;html=1;dashPattern=1 3;strokeWidth=2;rounded=0;exitX=1;exitY=1;exitDx=0;exitDy=0;exitPerimeter=0;entryX=0;entryY=0.5;entryDx=0;entryDy=0;" edge="1" parent="1" source="PILwApM1goDQA18c89xY-85" target="PILwApM1goDQA18c89xY-77">
          <mxGeometry width="50" height="50" relative="1" as="geometry">
            <mxPoint x="-320" y="180" as="sourcePoint" />
            <mxPoint x="-270" y="130" as="targetPoint" />
          </mxGeometry>
        </mxCell>
      </root>
    </mxGraphModel>
  </diagram>
</mxfile>
